<svg width="240" height="44" viewBox="0 0 240 44" fill="none" xmlns="http://www.w3.org/2000/svg">
<path d="M0.642188 34V0.399998H9.95419L17.8742 21.616L25.7942 0.399998H35.1062V34H29.3462V7.456L20.6102 29.2H15.1862L6.40219 7.456V34H0.642188ZM51.0594 34.624C48.7554 34.624 46.7234 34.128 44.9634 33.136C43.2354 32.112 41.8754 30.704 40.8834 28.912C39.9234 27.088 39.4434 24.976 39.4434 22.576C39.4434 18.352 40.4994 15.168 42.6114 13.024C44.7554 10.848 47.5714 9.76 51.0594 9.76C53.3314 9.76 55.3314 10.24 57.0594 11.2C58.8194 12.16 60.1954 13.6 61.1874 15.52C62.1794 17.408 62.6754 19.76 62.6754 22.576C62.6754 24.976 62.1794 27.088 61.1874 28.912C60.1954 30.704 58.8194 32.112 57.0594 33.136C55.3314 34.128 53.3314 34.624 51.0594 34.624ZM51.0594 29.104C52.3714 29.104 53.4754 28.8 54.3714 28.192C55.2994 27.552 55.9874 26.736 56.4354 25.744C56.9154 24.752 57.1554 23.696 57.1554 22.576C57.1554 20.56 56.6274 18.848 55.5714 17.44C54.5474 16 53.0434 15.28 51.0594 15.28C49.1394 15.28 47.6354 15.968 46.5474 17.344C45.4914 18.72 44.9634 20.464 44.9634 22.576C44.9634 23.728 45.2034 24.8 45.6834 25.792C46.1634 26.784 46.8514 27.584 47.7474 28.192C48.6754 28.8 49.7794 29.104 51.0594 29.104ZM77.2157 34.624C74.9117 34.624 72.8797 34.128 71.1197 33.136C69.3917 32.112 68.0317 30.704 67.0397 28.912C66.0797 27.088 65.5997 24.976 65.5997 22.576C65.5997 18.352 66.6557 15.168 68.7677 13.024C70.9117 10.848 73.7277 9.76 77.2157 9.76C79.4877 9.76 81.4877 10.24 83.2157 11.2C84.9757 12.16 86.3517 13.6 87.3437 15.52C88.3357 17.408 88.8317 19.76 88.8317 22.576C88.8317 24.976 88.3357 27.088 87.3437 28.912C86.3517 30.704 84.9757 32.112 83.2157 33.136C81.4877 34.128 79.4877 34.624 77.2157 34.624ZM77.2157 29.104C78.5277 29.104 79.6317 28.8 80.5277 28.192C81.4557 27.552 82.1437 26.736 82.5917 25.744C83.0717 24.752 83.3117 23.696 83.3117 22.576C83.3117 20.56 82.7837 18.848 81.7277 17.44C80.7037 16 79.1997 15.28 77.2157 15.28C75.2957 15.28 73.7917 15.968 72.7037 17.344C71.6477 18.72 71.1197 20.464 71.1197 22.576C71.1197 23.728 71.3597 24.8 71.8397 25.792C72.3197 26.784 73.0077 27.584 73.9037 28.192C74.8317 28.8 75.9357 29.104 77.2157 29.104ZM97.8519 33.568C96.4439 32.928 95.2919 32 94.3959 30.784C93.4999 29.536 92.8279 28.112 92.3799 26.512C91.9639 24.912 91.7559 23.264 91.7559 21.568C91.7559 19.36 92.1559 17.36 92.9559 15.568C93.7559 13.776 94.9239 12.352 96.4599 11.296C98.0279 10.208 99.9479 9.664 102.22 9.664C102.956 9.664 103.804 9.744 104.764 9.904C105.756 10.064 106.556 10.368 107.164 10.816V0.399998H112.924V34H107.164V32.08C106.62 32.72 105.788 33.232 104.668 33.616C103.548 33.968 102.364 34.144 101.116 34.144C99.8999 34.176 98.8119 33.984 97.8519 33.568ZM107.164 27.28V16.24C105.5 15.568 103.932 15.344 102.46 15.568C101.02 15.792 99.8359 16.416 98.9079 17.44C98.0119 18.432 97.5639 19.808 97.5639 21.568C97.5639 23.648 98.0119 25.296 98.9079 26.512C99.8039 27.696 100.972 28.384 102.412 28.576C103.884 28.736 105.468 28.304 107.164 27.28ZM128.92 34.48C127.48 34.48 126.024 34.256 124.552 33.808C123.112 33.36 121.752 32.752 120.472 31.984C119.224 31.184 118.152 30.304 117.256 29.344L121.528 25.216C122.488 26.208 123.64 27.008 124.984 27.616C126.36 28.224 127.64 28.528 128.824 28.528C130.328 28.528 131.592 28.096 132.616 27.232C133.672 26.336 134.2 25.28 134.2 24.064C134.2 23.072 133.832 22.224 133.096 21.52C132.36 20.784 131.448 20.256 130.36 19.936C127.512 19.168 125.08 18.352 123.064 17.488C121.08 16.624 119.608 15.488 118.648 14.08C117.688 12.672 117.336 10.784 117.592 8.416C117.816 6.56 118.424 5.024 119.416 3.808C120.44 2.56 121.72 1.632 123.256 1.024C124.824 0.415998 126.552 0.111999 128.44 0.111999C130.136 0.111999 131.912 0.383999 133.768 0.927999C135.624 1.44 137.464 2.304 139.288 3.52L135.208 7.744C134.28 7.232 133.272 6.8 132.184 6.448C131.096 6.096 129.976 5.904 128.824 5.872C127.928 5.84 127.064 5.936 126.232 6.16C125.432 6.352 124.76 6.704 124.216 7.216C123.672 7.696 123.384 8.352 123.352 9.184C123.32 10.112 123.56 10.832 124.072 11.344C124.584 11.856 125.288 12.272 126.184 12.592C127.112 12.912 128.184 13.264 129.4 13.648C131.64 14.256 133.544 14.96 135.112 15.76C136.68 16.528 137.88 17.568 138.712 18.88C139.544 20.16 139.96 21.888 139.96 24.064C139.96 26.016 139.464 27.776 138.472 29.344C137.48 30.912 136.152 32.16 134.488 33.088C132.824 34.016 130.968 34.48 128.92 34.48ZM163.25 30.688C161.65 32.224 159.922 33.28 158.066 33.856C156.21 34.432 154.386 34.576 152.594 34.288C150.802 34 149.17 33.328 147.698 32.272C146.226 31.216 145.042 29.824 144.146 28.096C143.282 26.368 142.85 24.336 142.85 22C142.85 19.6 143.282 17.536 144.146 15.808C145.01 14.048 146.178 12.672 147.65 11.68C149.122 10.656 150.754 10.032 152.546 9.808C154.338 9.584 156.178 9.792 158.066 10.432C159.954 11.04 161.73 12.112 163.394 13.648L159.554 17.728C158.594 16.576 157.49 15.856 156.242 15.568C155.026 15.28 153.826 15.36 152.642 15.808C151.49 16.256 150.53 17.024 149.762 18.112C149.026 19.168 148.658 20.464 148.658 22C148.658 23.664 149.026 25.04 149.762 26.128C150.53 27.216 151.49 27.984 152.642 28.432C153.794 28.848 155.01 28.912 156.29 28.624C157.57 28.304 158.738 27.584 159.794 26.464L163.25 30.688ZM173.679 34.24C171.247 34.112 169.407 33.424 168.159 32.176C166.911 30.896 166.287 29.136 166.287 26.896C166.287 25.264 166.703 23.872 167.535 22.72C168.367 21.536 169.471 20.608 170.847 19.936C172.223 19.264 173.743 18.848 175.407 18.688C177.103 18.528 178.815 18.64 180.543 19.024V17.536C180.543 16.512 180.127 15.776 179.295 15.328C178.463 14.88 177.439 14.672 176.223 14.704C175.039 14.736 173.839 14.976 172.623 15.424C171.439 15.84 170.479 16.448 169.743 17.248L166.527 13.744C167.743 12.56 169.183 11.632 170.847 10.96C172.511 10.288 174.223 9.904 175.983 9.808C177.775 9.712 179.455 9.92 181.023 10.432C182.623 10.944 183.935 11.776 184.959 12.928C185.759 13.824 186.207 15.008 186.303 16.48C186.399 17.952 186.447 19.568 186.447 21.328V34H180.591V31.792C179.599 32.72 178.495 33.376 177.279 33.76C176.063 34.112 174.863 34.272 173.679 34.24ZM180.399 27.232V23.104C177.071 22.848 174.751 23.056 173.439 23.728C172.159 24.4 171.519 25.44 171.519 26.848C171.519 27.744 171.823 28.4 172.431 28.816C173.071 29.2 173.855 29.392 174.783 29.392C175.743 29.36 176.719 29.168 177.711 28.816C178.735 28.432 179.631 27.904 180.399 27.232ZM196.996 43.6H191.236V10H196.996V11.296C198.82 10.208 200.692 9.728 202.612 9.856C204.532 9.952 206.308 10.544 207.94 11.632C209.572 12.72 210.884 14.192 211.876 16.048C212.868 17.904 213.364 20.032 213.364 22.432C213.364 24.608 212.868 26.592 211.876 28.384C210.916 30.176 209.604 31.616 207.94 32.704C206.308 33.76 204.468 34.304 202.42 34.336C201.94 34.336 201.348 34.304 200.644 34.24C199.94 34.176 199.252 34.064 198.58 33.904C197.94 33.712 197.412 33.472 196.996 33.184V43.6ZM196.996 27.76C198.852 28.624 200.58 28.96 202.18 28.768C203.78 28.576 205.076 27.936 206.068 26.848C207.06 25.728 207.556 24.256 207.556 22.432C207.556 20.32 207.028 18.656 205.972 17.44C204.948 16.224 203.636 15.536 202.036 15.376C200.436 15.216 198.756 15.664 196.996 16.72V27.76ZM239.717 24.208H222.917C223.045 25.648 223.589 26.752 224.549 27.52C225.509 28.288 226.693 28.736 228.101 28.864C229.509 28.96 230.949 28.768 232.421 28.288C233.925 27.776 235.269 27.008 236.453 25.984L239.621 30.352C237.861 31.824 236.069 32.88 234.245 33.52C232.453 34.128 230.677 34.432 228.917 34.432C224.853 34.432 221.797 33.296 219.749 31.024C217.733 28.752 216.725 25.536 216.725 21.376C216.725 19.008 217.189 16.944 218.117 15.184C219.077 13.424 220.421 12.064 222.149 11.104C223.909 10.144 225.973 9.68 228.341 9.712C233.525 9.776 236.981 11.808 238.709 15.808C239.189 16.96 239.493 18.224 239.621 19.6C239.781 20.976 239.813 22.512 239.717 24.208ZM228.869 15.088C226.917 15.088 225.429 15.616 224.405 16.672C223.413 17.728 222.917 18.896 222.917 20.176H234.773C234.773 18.864 234.261 17.696 233.237 16.672C232.245 15.616 230.789 15.088 228.869 15.088Z" fill="url(#paint0_linear_30_490)"/>
<defs>
<linearGradient id="paint0_linear_30_490" x1="-2" y1="-52.6" x2="241.816" y2="80.9368" gradientUnits="userSpaceOnUse">
<stop stop-color="#FCDA98"/>
<stop offset="0.485" stop-color="#FFCFD7"/>
<stop offset="1" stop-color="#D3E0FF"/>
</linearGradient>
</defs>
</svg>
